<svg id="Ebene_1" data-name="Ebene 1" xmlns="http://www.w3.org/2000/svg" viewBox="0 0 72.6 327.67"><title>Logo_centre_o</title><g id="Ebene_2" data-name="Ebene 2"><g id="Ebene_1-2" data-name="Ebene 1-2"><rect x="0.01" width="72.59" height="327.67" style="fill:none"/><g id="Ebene_2-2" data-name="Ebene 2-2"><g id="Ebene_1-2-2" data-name="Ebene 1-2-2"><path d="M72.6,36.31A36.3,36.3,0,1,0,27.7,71.57l8.61,92.27,8.6-92.27A36.31,36.31,0,0,0,72.6,36.31Z" transform="translate(0)" style="fill:#d07b00"/><path d="M35.14,55.63h0l1.39,2.6-.93,1.59.17.41c.65,1.15,1.24,2.34,1.93,3.49l4.57.08,6.16-10.46c.67-1,1.28-2.62,2.71-2.82a3,3,0,0,1,1.54.17,14.18,14.18,0,0,0,1.06-2,2.45,2.45,0,0,1-1.19-2.21,2.33,2.33,0,0,1,1.23-1.87,2.55,2.55,0,0,1,1.61-.21,15.25,15.25,0,0,0,.6-2.3,2.89,2.89,0,0,1-1.06-.7,2.27,2.27,0,0,1-.47-2.19,2.41,2.41,0,0,1,2.07-1.62,12.55,12.55,0,0,0,0-2.6c-.13-.07-.29,0-.44-.11a2.34,2.34,0,0,1-1.54-1.62A2.2,2.2,0,0,1,55.32,31a3.81,3.81,0,0,1,.62-.43v-.13a14.79,14.79,0,0,0-.63-2.28,2.34,2.34,0,0,1-2.06-1,2.47,2.47,0,0,1-.17-2.27,2.69,2.69,0,0,1,.62-.76,15.08,15.08,0,0,0-1.23-2.27A2.31,2.31,0,0,1,50.11,21a2.38,2.38,0,0,1-.27-2.28l.18-.36a23.25,23.25,0,0,0-1.78-1.93A2.43,2.43,0,0,1,46,16.31a2.29,2.29,0,0,1-1-2.45,17.16,17.16,0,0,0-2-1.36,2.45,2.45,0,0,1-2.65.06,2.36,2.36,0,0,1-1.17-2A17.32,17.32,0,0,0,37,9.75a2.71,2.71,0,0,1-3,.52,2.41,2.41,0,0,1-1.3-1.54,15,15,0,0,0-2.21-.26,2.48,2.48,0,0,1-4.43.13s0-.11-.09-.13a15,15,0,0,0-2,.25,2.73,2.73,0,0,1-2.11,1.67,2.52,2.52,0,0,1-2.21-.86,31.63,31.63,0,0,0-7.8,6.88A16.21,16.21,0,0,1,23.4,11.92,22,22,0,0,1,42.36,22a21.73,21.73,0,0,1,3.46,13.35,14.55,14.55,0,0,1-1.16,4.45h0L41.51,34h0l-.09.1-2.69,4.6h0A19.76,19.76,0,0,0,25,39.64,20.37,20.37,0,0,0,17.82,45H6A31.65,31.65,0,0,0,28.54,66.9l.12-.26ZM44.2,50.3a2.43,2.43,0,0,1,1.67-1.88,2.59,2.59,0,0,1,2.1.32h0l-2.43,4.14h0A2.54,2.54,0,0,1,44.2,50.3Z" transform="translate(0)" style="fill:#fff"/></g></g></g></g></svg>